<?xml version="1.0" standalone="no"?>
<!DOCTYPE svg PUBLIC "-//W3C//DTD SVG 20010904//EN"
 "http://www.w3.org/TR/2001/REC-SVG-20010904/DTD/svg10.dtd">
<svg version="1.0" xmlns="http://www.w3.org/2000/svg"
 width="300.000000pt" height="300.000000pt" viewBox="0 0 300.000000 300.000000"
 preserveAspectRatio="xMidYMid meet">

<g transform="translate(0.000000,300.000000) scale(0.100000,-0.100000)"
fill="#000000" stroke="none">
<path d="M1449 2341 c-11 -15 -367 -407 -426 -468 -6 -7 -25 -13 -40 -13 -19
0 -39 -10 -58 -30 l-29 -30 75 0 c73 0 77 1 105 33 93 105 387 422 393 425 4
1 102 -101 217 -227 l209 -230 104 0 105 -1 -29 30 c-25 27 -35 30 -87 30 -55
0 -59 2 -96 43 -21 23 -108 119 -193 212 -85 94 -170 187 -189 208 -38 43 -43
44 -61 18z"/>
<path d="M1428 2156 c-8 -8 -101 -109 -208 -225 l-193 -211 -102 0 c-93 0
-103 -2 -123 -23 -12 -13 -22 -28 -22 -33 0 -6 53 -9 139 -7 l140 3 49 52
c107 115 200 217 262 286 35 40 69 72 75 71 5 0 48 -43 95 -95 47 -52 130
-144 185 -204 l100 -111 195 0 c107 0 198 0 203 0 4 1 -5 15 -20 31 l-26 30
-161 0 -161 1 -195 215 c-107 119 -200 220 -206 225 -8 6 -17 5 -26 -5z"/>
<path d="M1398 1971 c-1 -4 -48 -57 -103 -116 -55 -60 -123 -134 -152 -164
-28 -31 -61 -68 -73 -83 l-21 -28 -179 0 -179 0 -20 -26 c-12 -15 -21 -31 -21
-35 0 -5 94 -9 209 -9 l208 0 148 163 c82 89 160 174 175 190 l26 27 73 -82
c41 -46 119 -131 174 -190 l100 -108 293 0 c162 0 294 4 294 8 0 5 -10 21 -23
35 l-23 27 -258 0 -258 0 -58 63 c-33 34 -114 124 -182 199 -115 128 -141 151
-150 129z"/>
<path d="M1359 1771 c-8 -10 -79 -89 -157 -175 l-144 -156 -246 -1 -247 0 -28
-35 -29 -34 289 0 289 0 115 126 c63 69 130 143 149 166 l36 40 149 -166 150
-165 398 -1 c218 0 397 3 397 8 0 4 -11 20 -25 35 l-26 27 -358 0 -358 0 -139
151 c-76 84 -148 162 -159 175 -25 29 -38 30 -56 5z"/>
<path d="M1210 1449 l-134 -149 -316 0 -316 0 -34 -35 -34 -35 361 0 361 0
108 118 c59 64 117 128 129 140 l22 24 128 -141 128 -141 506 0 505 0 -34 35
-34 35 -457 0 -457 0 -110 118 c-60 64 -122 132 -137 150 -15 17 -32 32 -38
31 -7 0 -73 -68 -147 -150z"/>
<path d="M1425 969 c-78 -19 -121 -88 -113 -184 8 -94 66 -145 166 -145 98 0
156 68 150 177 -7 117 -89 178 -203 152z m100 -84 c24 -23 31 -51 26 -104 -9
-105 -154 -102 -163 4 -6 76 26 125 82 125 19 0 40 -9 55 -25z"/>
<path d="M742 808 l3 -163 35 0 35 0 3 68 3 67 63 0 c67 0 63 -4 57 53 -1 4
-28 7 -61 7 l-60 0 0 35 c0 19 3 34 8 34 4 -1 35 -1 70 0 l62 1 0 30 0 30
-110 0 -110 0 2 -162z"/>
<path d="M1018 964 c-5 -4 -8 -79 -8 -166 l0 -159 37 3 37 3 -3 58 c-2 54 -1
57 21 57 18 0 30 -11 48 -42 35 -65 50 -78 87 -78 42 0 42 12 -2 79 -34 51
-35 54 -17 67 50 35 49 120 -2 158 -21 16 -46 22 -109 24 -45 2 -85 0 -89 -4z
m136 -64 c19 -7 26 -17 26 -35 0 -18 -7 -28 -26 -35 -44 -17 -61 -12 -66 18
-8 60 9 74 66 52z"/>
<path d="M1690 805 l0 -165 35 0 35 0 1 98 c1 53 1 102 0 107 -2 16 46 -44
102 -127 44 -66 56 -78 79 -78 l28 0 0 165 0 165 -35 0 -35 0 0 -96 0 -96 -62
83 c-35 45 -68 88 -74 96 -6 7 -25 13 -43 13 l-31 0 0 -165z"/>
<path d="M2018 940 c-5 -32 -9 -31 80 -30 4 0 9 -60 12 -132 l5 -133 38 -3 37
-3 0 134 c0 133 0 134 23 134 77 1 78 2 75 31 l-3 27 -131 3 -132 3 -4 -31z"/>
</g>
</svg>
