<?xml version="1.0" standalone="no"?>
<!DOCTYPE svg PUBLIC "-//W3C//DTD SVG 20010904//EN"
 "http://www.w3.org/TR/2001/REC-SVG-20010904/DTD/svg10.dtd">
<svg version="1.0" xmlns="http://www.w3.org/2000/svg"
 width="752.000000pt" height="598.000000pt" viewBox="0 0 752.000000 598.000000"
 preserveAspectRatio="xMidYMid meet">

<g transform="translate(0.000000,598.000000) scale(0.100000,-0.100000)"
fill="#000000" stroke="none">
<path d="M2530 5366 c-3 -2 -41 -10 -85 -15 -102 -14 -179 -27 -232 -40 -24
-6 -61 -15 -83 -21 -22 -5 -57 -14 -77 -19 -21 -4 -58 -16 -83 -25 -25 -10
-63 -25 -85 -33 -109 -42 -120 -46 -217 -92 -48 -23 -90 -41 -93 -41 -4 0 -21
-10 -38 -22 -42 -30 -88 -57 -109 -64 -10 -4 -18 -9 -18 -13 0 -3 -12 -12 -27
-19 -73 -33 -377 -281 -467 -381 -17 -19 -55 -60 -84 -92 -157 -168 -374 -518
-452 -729 -7 -19 -17 -39 -22 -44 -4 -6 -8 -19 -8 -31 0 -12 -4 -25 -8 -30 -4
-6 -14 -28 -21 -50 -7 -22 -16 -49 -21 -60 -17 -38 -68 -271 -86 -390 -26
-165 -26 -578 -1 -745 18 -123 53 -284 68 -312 5 -10 9 -31 9 -47 0 -17 4 -33
10 -36 5 -3 10 -14 10 -23 0 -22 76 -214 129 -323 22 -48 41 -89 41 -92 0 -3
18 -34 39 -68 22 -35 58 -93 80 -129 22 -36 49 -76 60 -90 11 -14 48 -63 82
-110 86 -117 332 -361 459 -455 202 -150 333 -228 544 -325 37 -16 71 -30 76
-30 6 0 29 -9 53 -19 90 -41 279 -95 417 -120 137 -25 166 -30 213 -36 26 -3
47 -10 47 -16 0 -11 210 -11 350 2 100 8 147 14 320 38 106 15 354 80 423 110
23 10 62 24 87 31 52 14 267 116 355 167 33 20 76 45 95 55 19 11 96 66 170
121 237 178 485 448 640 697 29 47 64 102 77 123 13 21 23 43 20 50 -2 7 -29
10 -73 9 -38 0 -83 -1 -101 -2 -28 0 -36 -7 -65 -56 -100 -167 -258 -360 -423
-516 -81 -77 -282 -233 -332 -258 -16 -8 -46 -26 -68 -41 -22 -14 -94 -52
-160 -84 -66 -31 -128 -61 -137 -66 -10 -5 -23 -9 -28 -9 -6 0 -30 -9 -52 -20
-23 -11 -47 -20 -53 -20 -7 0 -25 -6 -41 -14 -50 -25 -304 -87 -414 -101 -106
-14 -354 -31 -400 -28 -103 6 -289 25 -360 37 -173 28 -390 90 -482 137 -10 5
-22 9 -28 9 -8 0 -130 57 -185 87 -11 6 -46 24 -77 40 -32 15 -58 31 -58 36 0
4 -5 7 -10 7 -15 0 -110 63 -225 150 -122 91 -353 320 -420 415 -28 39 -60 81
-72 95 -74 84 -254 427 -312 596 -43 124 -84 282 -101 389 -26 169 -32 245
-33 405 0 192 20 393 53 528 5 23 15 61 20 85 6 23 15 58 19 77 5 19 21 67 36
105 14 39 30 81 34 95 5 14 29 68 54 120 24 52 51 110 58 128 8 17 17 32 21
32 5 0 8 4 8 10 0 5 20 41 45 80 25 39 45 72 45 75 0 2 40 57 89 122 129 170
309 351 461 464 277 207 570 349 875 425 248 62 599 90 805 63 173 -22 239
-34 281 -50 25 -10 84 -23 130 -29 150 -22 471 -157 659 -279 52 -34 105 -66
118 -71 12 -5 22 -15 22 -23 0 -17 58 -70 93 -85 44 -19 176 -133 247 -213 36
-41 70 -78 77 -84 20 -17 175 -228 195 -267 11 -20 30 -48 43 -62 22 -24 30
-26 114 -26 49 0 93 4 96 10 3 5 -4 27 -17 49 -46 80 -102 167 -141 221 -105
142 -125 168 -174 220 -29 30 -53 58 -53 61 0 10 -134 138 -210 201 -122 101
-200 159 -310 227 -115 73 -364 201 -390 201 -9 0 -20 4 -25 9 -18 16 -134 56
-235 81 -19 5 -71 18 -115 30 -44 11 -109 26 -145 31 -36 6 -90 15 -120 21
-58 10 -601 23 -610 14z"/>
<path d="M2565 4955 c-261 -35 -404 -70 -590 -145 -442 -177 -864 -553 -1085
-965 -12 -22 -30 -49 -40 -60 -27 -30 -76 -144 -84 -194 -4 -24 -12 -53 -18
-65 -12 -20 -44 -126 -54 -176 -3 -14 -9 -34 -14 -45 -5 -11 -11 -38 -15 -60
-3 -22 -10 -69 -16 -105 -18 -115 -27 -361 -17 -485 13 -176 36 -343 49 -351
5 -3 9 -18 9 -35 0 -16 11 -61 25 -99 14 -39 37 -103 51 -142 27 -77 137 -303
159 -328 7 -8 20 -31 30 -50 10 -19 30 -51 45 -70 15 -19 34 -57 43 -84 15
-45 92 -136 115 -136 5 0 40 -30 78 -68 107 -103 164 -154 229 -203 240 -183
519 -318 800 -387 194 -48 280 -57 525 -57 245 0 367 14 550 63 30 8 67 17 83
19 15 3 30 9 33 14 3 5 15 9 28 9 12 0 26 4 32 9 5 5 38 19 74 31 36 13 93 38
127 57 34 18 68 33 75 33 21 0 194 107 288 177 46 34 93 63 103 63 10 0 44 24
75 54 32 30 69 65 84 78 15 13 34 39 42 59 8 20 37 60 63 89 26 29 63 74 80
101 18 26 37 50 43 54 29 18 0 25 -100 25 l-109 0 -38 -42 c-125 -140 -148
-161 -325 -312 -9 -8 -29 -23 -45 -33 -15 -9 -30 -21 -33 -24 -25 -33 -343
-190 -477 -235 -135 -45 -286 -84 -327 -84 -17 0 -47 -5 -66 -10 -49 -15 -441
-15 -531 0 -304 49 -531 131 -774 280 -132 81 -273 197 -396 325 -43 45 -70
77 -174 210 -65 82 -215 363 -232 434 -3 14 -9 31 -13 36 -26 39 -75 224 -101
385 -17 106 -23 405 -10 500 44 319 104 496 235 695 28 41 46 80 46 97 0 34
29 93 64 130 14 15 26 30 26 32 0 30 260 306 364 387 336 261 699 397 1131
426 61 4 119 7 130 5 11 -1 70 -6 130 -11 117 -11 252 -32 307 -50 18 -6 74
-23 123 -37 146 -44 411 -163 499 -224 25 -16 47 -30 50 -30 2 0 40 -27 83
-59 89 -68 196 -169 267 -255 27 -32 64 -74 81 -92 l32 -34 105 0 c58 0 108 3
111 7 17 16 -192 264 -319 380 -44 39 -122 104 -174 144 -93 71 -300 199 -323
199 -7 0 -36 14 -66 30 -30 17 -58 30 -62 30 -5 0 -32 11 -61 24 -59 26 -217
78 -293 96 -27 6 -66 15 -85 20 -157 41 -481 59 -655 35z"/>
<path d="M2485 4560 c-11 -5 -33 -9 -49 -9 -16 -1 -43 -5 -60 -11 -17 -5 -71
-21 -121 -36 -93 -27 -118 -37 -271 -109 -116 -55 -275 -161 -314 -210 -25
-32 -30 -47 -30 -92 0 -68 4 -74 178 -247 112 -111 135 -130 150 -121 10 5 44
30 76 54 l59 44 -127 125 c-69 69 -126 133 -126 142 0 9 19 27 43 40 23 13 53
32 66 42 59 45 318 153 431 179 97 22 134 28 139 23 3 -3 8 -92 11 -197 l5
-192 85 4 c47 2 88 5 93 8 12 7 7 444 -7 488 -18 60 -62 85 -145 84 -36 0 -75
-4 -86 -9z"/>
<path d="M2908 4547 c-55 -46 -59 -65 -56 -319 l3 -233 84 -3 c61 -2 87 1 92
10 5 7 9 90 9 185 0 183 2 190 50 185 61 -7 185 -41 280 -77 141 -55 345 -170
357 -202 3 -8 -7 -28 -26 -47 -50 -52 -44 -56 83 -56 99 0 117 3 140 21 23 18
26 28 26 77 0 70 -28 115 -106 166 -29 20 -56 36 -60 36 -3 0 -24 13 -47 28
-114 78 -392 191 -542 221 -33 7 -76 17 -96 22 -20 5 -65 9 -100 9 -52 0 -69
-4 -91 -23z"/>
<path d="M1440 3933 c-40 -8 -85 -53 -152 -153 -190 -283 -327 -726 -264 -849
9 -16 32 -40 53 -53 37 -22 45 -23 243 -23 l205 0 3 28 c2 15 8 27 13 27 6 0
9 26 7 63 l-3 62 -172 3 c-173 2 -181 4 -173 37 1 6 9 42 17 80 19 93 57 202
104 300 22 45 39 86 39 93 0 7 5 12 10 12 6 0 10 4 10 9 0 16 95 161 105 161
6 0 64 -54 130 -120 66 -66 123 -120 126 -120 9 0 109 125 109 137 0 15 -274
280 -307 297 -32 16 -54 18 -103 9z"/>
<path d="M3215 3228 c-71 -5 -140 -11 -153 -14 l-22 -4 2 -398 3 -397 95 0 95
0 5 125 5 125 100 2 c55 1 110 0 121 -2 15 -3 49 -46 103 -130 l81 -126 98 3
c97 3 97 3 100 30 3 25 -35 98 -64 123 -16 14 -74 110 -74 123 0 6 20 23 44
37 63 37 89 100 90 220 0 136 -34 199 -132 247 -98 47 -213 55 -497 36z m382
-204 c48 -36 44 -123 -7 -149 -44 -23 -335 -22 -344 1 -9 22 -7 137 2 151 9
14 83 21 219 19 86 -1 106 -5 130 -22z"/>
<path d="M4463 3225 c-232 -43 -326 -181 -310 -460 6 -110 28 -183 71 -239 64
-85 207 -136 380 -136 326 0 466 127 466 419 0 199 -64 324 -196 383 -100 44
-274 58 -411 33z m299 -203 c78 -35 98 -79 98 -215 0 -173 -50 -219 -243 -225
-100 -4 -112 -2 -162 22 -76 38 -95 79 -95 212 0 143 29 190 137 220 66 19
208 11 265 -14z"/>
<path d="M1992 3212 c-9 -7 -12 -94 -10 -403 l3 -394 80 -3 c133 -5 124 -15
127 151 l3 142 208 3 208 2 -3 93 -3 92 -207 3 -208 2 0 60 0 60 254 0 c140 0
261 3 270 6 23 9 23 179 0 188 -24 9 -707 7 -722 -2z"/>
<path d="M5394 3208 c-4 -6 -9 -186 -10 -400 l-3 -388 22 -5 c12 -3 58 -5 102
-3 l80 3 3 243 c2 197 5 242 16 242 8 0 94 -99 192 -221 99 -122 188 -232 199
-246 19 -23 24 -24 120 -21 l100 3 0 400 0 400 -88 3 c-57 2 -94 -1 -103 -9
-11 -9 -14 -58 -14 -251 0 -187 -3 -239 -12 -236 -7 3 -64 67 -126 144 -63 76
-148 181 -190 233 -43 52 -83 100 -90 107 -17 18 -187 20 -198 2z"/>
<path d="M6517 3213 c-4 -3 -7 -46 -7 -94 0 -70 3 -88 16 -93 9 -3 76 -6 150
-6 l134 0 1 -62 c1 -35 1 -166 1 -293 0 -144 4 -235 10 -242 7 -9 41 -13 104
-13 l94 0 2 173 c1 94 1 226 0 292 -2 66 1 126 6 133 6 8 44 12 128 13 65 1
131 3 147 6 l27 5 0 88 c0 71 -3 89 -16 94 -21 8 -789 8 -797 -1z"/>
<path d="M1160 2743 c-19 -3 -44 -13 -55 -23 -11 -10 -31 -20 -45 -22 -16 -2
-26 -10 -28 -23 -2 -11 -7 -29 -12 -40 -16 -38 -18 -107 -4 -162 8 -29 14 -64
14 -75 0 -12 4 -35 9 -52 70 -236 127 -363 239 -536 102 -156 118 -170 191
-170 36 0 75 7 103 20 55 24 138 96 138 119 0 9 31 48 70 86 39 38 70 75 70
83 0 16 -91 130 -105 131 -5 1 -41 -31 -80 -69 -60 -60 -178 -160 -189 -160
-9 0 -97 145 -133 220 -57 116 -89 205 -123 335 -26 101 -28 111 -13 123 12 8
65 12 181 12 l164 0 -6 23 c-4 12 -10 41 -13 65 -3 23 -10 42 -14 42 -5 0 -9
11 -9 25 0 14 -4 25 -10 25 -5 0 -10 7 -10 15 0 13 -22 15 -147 13 -82 0 -164
-3 -183 -5z"/>
<path d="M1809 1722 c-75 -75 -144 -151 -153 -169 -21 -42 -20 -103 2 -149 34
-72 327 -244 543 -318 105 -37 323 -86 378 -86 41 0 71 13 103 44 37 38 48
115 48 344 l0 190 -63 7 c-34 4 -76 5 -92 3 l-30 -3 -5 -185 c-3 -102 -8 -190
-12 -196 -5 -8 -25 -7 -70 2 -102 20 -239 62 -254 77 -4 4 -14 7 -21 7 -41 0
-333 169 -333 193 0 6 57 69 128 140 l127 128 -23 17 c-13 9 -45 34 -72 55
-27 20 -53 37 -57 37 -4 0 -69 -62 -144 -138z"/>
<path d="M2852 1353 c3 -210 5 -232 25 -273 40 -83 95 -96 269 -60 143 30 322
93 459 162 66 33 127 66 135 73 8 7 30 19 49 29 57 27 118 79 140 117 25 45
28 120 5 154 -16 25 -19 25 -151 25 l-135 0 41 -42 c22 -24 41 -48 41 -55 0
-28 -265 -174 -399 -219 -42 -14 -119 -37 -170 -50 -79 -20 -97 -22 -108 -11
-10 10 -14 60 -15 195 l-2 182 -94 0 -93 0 3 -227z"/>
</g>
</svg>
